<svg version="1.1" xmlns="http://www.w3.org/2000/svg" xmlns:xlink="http://www.w3.org/1999/xlink" width="355.93572" height="220.71957" viewBox="0,0,355.93572,220.71957"><g transform="translate(71,-8)"><g data-paper-data="{&quot;isPaintingLayer&quot;:true}" fill="#ffffff" fill-rule="nonzero" stroke="none" stroke-linecap="butt" stroke-linejoin="miter" stroke-miterlimit="10" stroke-dasharray="" stroke-dashoffset="0" style="mix-blend-mode: normal"><path d="M-71,10.5c0,-1.38071 1.11929,-2.5 2.5,-2.5c1.38071,0 2.5,1.11929 2.5,2.5c0,1.38071 -1.11929,2.5 -2.5,2.5c-1.38071,0 -2.5,-1.11929 -2.5,-2.5z" stroke-width="0.5"/><path d="M236.25,178.5c0,-0.13807 0.11193,-0.25 0.25,-0.25c0.13807,0 0.25,0.11193 0.25,0.25c0,0.13807 -0.11193,0.25 -0.25,0.25c-0.13807,0 -0.25,-0.11193 -0.25,-0.25z" stroke-width="0.5"/><path d="M259.33379,175.68675c-0.18675,-0.16621 -0.02053,-0.35296 -0.02053,-0.35296l0.00274,-0.00307c0.67169,-0.75468 0.93401,-0.94455 0.93401,-1.95426c0.00001,-1.57789 -0.80129,-7.63194 1.07648,-8.68971c-0.04271,-0.03675 -0.07648,-0.09487 -0.07648,-0.18674c0,-0.25 0.25,-0.25 0.25,-0.25c0.16667,0 0.33333,0 0.5,0h0.5c0.13807,0 0.25,0.11193 0.25,0.25c0,0.0998 -0.05848,0.18594 -0.14304,0.22603l-0.44237,0.22118l-0.0611,-0.1222c-0.46884,0.23527 -1.0099,0.47839 -1.19301,0.7203c-1.00574,1.32869 -0.16047,6.16946 -0.16048,7.83114c0,1.13167 -0.32665,1.46215 -1.06052,2.28668l-0.00274,0.00307c0,0 -0.16621,0.18675 -0.35296,0.02053z" stroke-width="0.5"/><path d="M252.49981,73.25c0.25,-0.00019 0.25019,0.24981 0.25019,0.24981l0.00003,0.03883c0.00221,2.97557 1.91175,5.38855 3.2535,8.00695c2.92581,1.89066 5.72021,3.97304 8.54375,6.01113c2.96651,2.1413 5.52478,3.88932 8.96029,5.16722c2.89205,1.07575 6.84404,2.98343 9.9617,2.31136c1.91513,-0.41284 0.4273,-7.51336 0.09942,-9.36868c-0.60898,-3.44598 -1.93073,-6.66638 -3.0999,-9.96113c-0.92909,-2.61821 -4.54812,-5.95202 -6.88677,-7.52367c-2.90072,-1.95853 -5.80143,-3.91706 -8.70215,-5.87559c-3.69787,-2.49676 -3.25364,2.92698 -2.81692,5.42226l0.14415,0.2286c-0.0347,0.00479 -0.06822,0.0085 -0.10058,0.01117c0.03526,0.18687 0.06954,0.35179 0.10058,0.48883l-0.53033,-0.42678c-0.47398,-0.5208 -1.48578,-0.28033 -2.17678,-0.28033c-2,0 -4,0 -6,0c0,0 -0.25,0 -0.25,-0.25c0,-0.25 0.25,-0.25 0.25,-0.25c1.66293,0 5.74273,-0.64124 7.73647,-0.0011c-0.04676,-0.38105 0.01353,-0.85048 0.01353,-1.2489c0,-2.46408 0.43009,-6.45751 3.90966,-4.10814c2.90072,1.95853 5.80143,3.91706 8.70215,5.87559c2.42804,1.6464 6.11055,5.04401 7.07819,7.77085c1.17861,3.32134 2.50709,6.56717 3.12106,10.04133c0.37837,2.14102 2.01301,9.40566 -0.48643,9.94446c-3.22908,0.69609 -7.24739,-1.21783 -10.24138,-2.3315c-3.4759,-1.29292 -6.07895,-3.06521 -9.07862,-5.23044c-2.85433,-2.06032 -5.72506,-4.0824 -8.62192,-6.08114c-1.46407,-2.65592 -3.38041,-5.28059 -3.38269,-8.34199l-0.00003,-0.03883c0,0 -0.00019,-0.25 0.24981,-0.25019z" stroke-width="0.5"/><path d="M246.2515,221.52737c-0.02737,-0.2485 0.22113,-0.27587 0.22113,-0.27587l0.27484,-0.03027c1.32186,-0.14558 2.3997,-0.65242 3.16303,-1.74662c1.35206,-1.93812 3.13612,-3.45938 4.50206,-5.3378c0.28325,-0.38952 0.59475,-1.66983 1.04689,-1.85142c0.7612,-0.30572 1.25398,0.51317 1.2961,1.04382c0.02173,3.25849 0.30987,7.24021 2.38303,9.78939c1.14458,1.40739 2.22378,2.9082 3.54455,4.15281c0.42366,0.39923 1.07202,1.36138 1.7538,0.84095c0.40521,-0.30931 0.7593,-1.68509 0.98715,-2.17078c1.42853,-3.04507 0.83368,-6.85471 0.78926,-10.20094c-0.05035,-3.7932 -0.80788,-6.49408 -2.11416,-10.04839c-0.56457,-1.53618 -0.95311,-3.76352 -1.86921,-5.10785c-0.83153,-1.22022 -2.58612,-2.28871 -3.69655,-3.27575c-2.61593,-2.32527 -5.23186,-4.65054 -7.84791,-6.97568c-2.53522,-2.25329 -4.97187,-5.09108 -8.14126,-6.3277c-3.01972,-1.17822 -6.54815,-3.26114 -9.79252,-3.24841c-1.9503,0.00765 -5.61089,-0.67187 -7.37512,0.22133c-0.68548,0.34705 -1.43627,1.57374 -1.968,2.14786c-0.69414,0.74948 -2.31141,1.91929 -2.66782,2.85391c-0.57263,1.50164 0.085,4.78607 0.47136,6.30185c0.86551,3.39557 2.13801,6.66037 3.02565,10.04734c0.97506,3.72052 1.68757,6.30304 4.09677,9.32127c1.54857,1.94005 2.95399,4.05326 4.58748,5.91849c0.48436,0.55307 1.35203,1.71533 2.08107,1.68106c0.4954,-0.00002 3.0379,0.29506 3.32288,0.01189c0.06385,-0.06344 0.10912,-1.11671 0.27503,-1.37754c0.98381,-1.54673 1.99403,-3.07732 2.99086,-4.6157c1.84687,-2.85021 2.62909,-6.49114 2.9628,-9.82823c0.29771,-2.9771 0.69529,-5.94746 0.69529,-8.94038c0,0 0,-0.25 0.25,-0.25c0.25,0 0.25,0.25 0.25,0.25c0,3.00976 -0.39839,5.99636 -0.69777,8.99014c-0.34141,3.41413 -1.15129,7.13449 -3.04071,10.05037c-0.95248,1.46993 -2.71067,3.31669 -3.23417,4.97464c-0.09088,0.28782 0.13772,0.86627 -0.09891,1.10139c-0.4824,0.47933 -3.00009,0.1334 -3.67528,0.13343c-0.94011,-0.02994 -1.44849,-0.84298 -2.09198,-1.48616c-1.85593,-1.85505 -3.32745,-4.24697 -4.96738,-6.30147c-2.44968,-3.06895 -3.20004,-5.73033 -4.18966,-9.50644c-0.88791,-3.38799 -2.16069,-6.65388 -3.0265,-10.0506c-0.40977,-1.60763 -1.06727,-4.99541 -0.45404,-6.6035c0.38915,-1.02047 2.02,-2.20769 2.76816,-3.01551c0.57956,-0.62577 1.35294,-1.87143 2.10899,-2.2542c1.86334,-0.94337 5.54779,-0.2672 7.59901,-0.27524c3.3195,-0.01302 6.88956,2.07826 9.97623,3.28261c3.23292,1.26141 5.7076,4.12306 8.29168,6.41978c2.61606,2.32514 5.23199,4.65042 7.84793,6.97569c1.14502,1.01779 2.91804,2.10662 3.77755,3.36789c0.94419,1.38554 1.34475,3.63719 1.92534,5.21694c1.32214,3.59748 2.09381,6.37207 2.1448,10.21423c0.04555,3.43173 0.63054,7.29267 -0.83656,10.41993c-0.27086,0.57737 -0.63471,1.97287 -1.13643,2.35586c-1.72391,1.31595 -5.06998,-3.94489 -5.98965,-5.07572c-2.1492,-2.64268 -2.47244,-6.72698 -2.49511,-10.10151c0.03262,-0.25962 -0.25483,-0.72574 -0.60976,-0.58319c-0.22604,0.09079 -0.64588,1.4299 -0.82885,1.68151c-1.36535,1.87761 -3.14569,3.39366 -4.49638,5.32981c-0.84655,1.21349 -2.05517,1.79639 -3.51837,1.95754l-0.27484,0.03027c0,0 -0.2485,0.02737 -0.27587,-0.22113z" stroke-width="0.5"/><path d="M220.5,171c0,7.45584 8.05887,13.5 18,13.5c9.94113,0 18,-6.04416 18,-13.5c0,-7.45584 -8.05887,-13.5 -18,-13.5c-9.94113,0 -18,6.04416 -18,13.5z" stroke-width="0"/></g></g></svg>